<svg width="27" height="20" viewBox="0 0 27 20" fill="none" xmlns="http://www.w3.org/2000/svg">
<path fill-rule="evenodd" clip-rule="evenodd" d="M5.72392 19.34H21.9131C23.3416 19.3065 24.482 18.1385 24.4816 16.7095V6.06393C24.4816 5.55239 24.0669 5.1377 23.5554 5.1377H4.00745C3.49873 5.14435 3.08795 5.55517 3.0813 6.06393V16.7095C3.08129 17.4093 3.3601 18.0803 3.85605 18.574C4.35199 19.0676 5.02419 19.3433 5.72392 19.34ZM4.99584 16.7094V6.99007H22.6915V16.7094C22.6915 17.1391 22.3432 17.4875 21.9135 17.4875H5.78615C5.35445 17.4875 5.00258 17.1411 4.99584 16.7094Z" fill="#157DBC"/>
<path d="M17.2948 13.165C16.7833 13.165 16.3687 12.7503 16.3687 12.2387V6.23668L14.6892 1.85248H2.55046L4.79792 5.55744C5.00558 5.84057 5.0353 6.2168 4.87466 6.52903C4.71403 6.84127 4.39066 7.03581 4.03959 7.03143C3.68851 7.02706 3.37009 6.82452 3.21729 6.50838L0.130113 1.39553C-0.0433711 1.11116 -0.0433711 0.753667 0.130113 0.469295C0.288037 0.18021 0.591045 0.00028203 0.92043 6.77483e-08H15.3314C15.7143 -0.00014586 16.0579 0.235463 16.1958 0.592793L18.2086 5.73034C18.2527 5.83582 18.2737 5.9495 18.2703 6.06378V12.2387C18.2744 12.4943 18.1712 12.7399 17.9858 12.9159C17.8004 13.0919 17.5498 13.1823 17.2948 13.165Z" fill="#157DBC"/>
<path fill-rule="evenodd" clip-rule="evenodd" d="M17.3818 6.99003H23.5562C23.9236 6.98055 24.2496 6.75186 24.3835 6.40959L26.4828 1.27205C26.5957 0.985389 26.5587 0.661358 26.384 0.40756C26.2137 0.151527 25.9259 -0.00162988 25.6184 1.47856e-05H19.4441C19.0642 -0.00212418 18.7215 0.227982 18.5797 0.580458L16.5298 5.718C16.4063 6.00158 16.439 6.32897 16.6162 6.58249C16.7866 6.83852 17.0743 6.99168 17.3818 6.99003ZM22.9388 5.13762H18.7525L20.0738 1.85256H24.2477L22.9388 5.13762Z" fill="#157DBC"/>
</svg>
